<svg width="1058" height="607" viewBox="0 0 1058 607" fill="none" xmlns="http://www.w3.org/2000/svg">
<circle cx="538" cy="145" r="145" fill="#495E57"/>
<line y1="-6" x2="76.5045" y2="-6" transform="matrix(0.640485 0.767971 -0.684618 0.728902 471 146.247)" stroke="white" stroke-width="12"/>
<line y1="-6" x2="139.463" y2="-6" transform="matrix(0.781568 -0.62382 0.530136 0.847913 520 205)" stroke="white" stroke-width="12"/>
<path d="M340.779 418.619V394.219H345.045V418.619H340.779ZM332.07 401.354C331.867 398.747 332.003 396.25 332.477 393.863L336.412 395.311L333.797 401.354H332.07ZM332.934 396.402L332.477 393.863H353.348L352.434 396.402H332.934ZM352.027 401.354L349.412 395.311L353.348 393.863C353.822 396.25 353.957 398.747 353.754 401.354H352.027ZM337.529 419L337.656 417.375C338.164 417.189 338.731 417.011 339.357 416.842C339.984 416.673 340.627 416.529 341.287 416.41L340.779 418.289V414.734H345.045V418.289L344.562 416.588L348.396 417.324L348.27 419H337.529ZM358.451 418.848V392.746L362.514 393.482V418.848H358.451ZM370.029 418.848V406.051C370.029 403.732 368.895 402.572 366.627 402.572C364.833 402.572 363.038 403.283 361.244 404.705L360.736 403.436C362.886 400.896 365.484 399.627 368.531 399.627C370.326 399.627 371.697 400.118 372.645 401.1C373.609 402.064 374.092 403.452 374.092 405.264V418.848H370.029ZM355.861 419L355.988 417.477C356.479 417.24 356.97 417.045 357.461 416.893C357.952 416.74 358.443 416.605 358.934 416.486L358.451 418.365V414.887H362.514V418.365L362.107 416.689L365.205 417.426L365.078 419H355.861ZM367.896 419L368.023 417.375C368.379 417.189 368.76 417.028 369.166 416.893C369.572 416.74 370.021 416.605 370.512 416.486L370.029 418.365V414.887H374.092V418.365L373.686 416.689L376.783 417.426L376.656 419H367.896ZM358.451 396.301V393.127L358.832 394.016L355.404 392.67L355.506 391.654C357.097 391.079 358.925 390.749 360.99 390.664H362.514V395.031L358.451 396.301ZM389.732 416.258C389.732 414.853 389.749 413.423 389.783 411.967C389.817 410.494 389.834 409.115 389.834 407.828V405.594C389.834 403.19 388.666 401.988 386.33 401.988C384.79 401.988 383.368 402.479 382.064 403.461L380.439 405.518C380.389 404.062 380.473 402.733 380.693 401.531C382.962 400.262 385.357 399.627 387.879 399.627C391.857 399.627 393.846 401.523 393.846 405.314C393.846 405.788 393.837 406.499 393.82 407.447C393.803 408.378 393.786 409.385 393.77 410.469C393.753 411.535 393.736 412.542 393.719 413.49C393.702 414.421 393.693 415.141 393.693 415.648L389.732 416.258ZM380.439 405.518L380.795 402.623L384.68 401.15L382.598 405.518H380.439ZM384.527 419.381C382.919 419.381 381.641 418.924 380.693 418.01C379.745 417.079 379.271 415.835 379.271 414.277C379.271 410.909 381.717 408.708 386.609 407.676L390.748 406.812L391.002 408.996L387.371 409.453C385.983 409.622 384.976 410.003 384.35 410.596C383.723 411.171 383.41 412.035 383.41 413.186C383.41 415.42 384.375 416.537 386.305 416.537C387.659 416.537 389.233 415.902 391.027 414.633L391.484 415.547C389.436 418.103 387.117 419.381 384.527 419.381ZM390.748 419.076L389.885 415.775L393.693 414.684V417.451L393.135 416.436L396.232 417.324L396.105 418.797C394.717 419.017 392.932 419.11 390.748 419.076ZM413.041 418.848V406.051C413.041 403.732 411.924 402.572 409.689 402.572C407.929 402.572 406.152 403.283 404.357 404.705L403.85 403.436C404.882 402.217 406.067 401.277 407.404 400.617C408.742 399.957 410.146 399.627 411.619 399.627C413.38 399.627 414.734 400.118 415.682 401.1C416.63 402.064 417.104 403.452 417.104 405.264V418.848H413.041ZM401.564 418.848V401.887L405.627 402.953V418.848H401.564ZM398.975 419L399.102 417.477C399.592 417.24 400.083 417.045 400.574 416.893C401.065 416.74 401.556 416.605 402.047 416.486L401.564 418.365V414.887H405.627V418.365L405.221 416.689L408.318 417.426L408.191 419H398.975ZM410.908 419L411.035 417.375C411.391 417.189 411.771 417.028 412.178 416.893C412.584 416.74 413.033 416.605 413.523 416.486L413.041 418.365V414.887H417.104V418.365L416.697 416.689L419.795 417.426L419.668 419H410.908ZM401.564 406.076V402.826L402.174 403.943L398.67 402.268L398.771 401.201C399.516 400.863 400.38 400.575 401.361 400.338C402.343 400.101 403.393 399.932 404.51 399.83L405.475 403.867L401.564 406.076ZM424.721 418.848V392.238H428.783V418.848H424.721ZM426.625 410.266V407.828H431.627V410.266H426.625ZM437.289 419L430.129 409.682V408.463L436.73 401.303L436.121 402.471L432.973 401.734L433.1 400.059H441.859L441.732 401.684C441.326 401.904 440.878 402.098 440.387 402.268C439.913 402.42 439.43 402.555 438.939 402.674L440.514 401.43L433.252 409.021L433.125 407.27L441.377 417.451L439.574 416.588L442.672 417.324L442.545 419H437.289ZM422.131 419L422.258 417.477C422.749 417.24 423.24 417.045 423.73 416.893C424.221 416.74 424.712 416.605 425.203 416.486L424.721 418.365V414.887H428.783V418.365L428.377 416.689L431.271 417.375L431.145 419H422.131ZM424.721 396.301V393.127L425.102 394.016L421.674 392.67L421.775 391.654C423.367 391.079 425.195 390.749 427.26 390.664H428.783V395.031L424.721 396.301ZM460.014 427.938C458.626 427.751 457.331 427.379 456.129 426.82L460.471 418.441L461.283 417.781L467.225 401.785L467.377 402.471L464.559 401.734L464.686 400.059H471.947L471.82 401.684C471.465 401.904 471.05 402.098 470.576 402.268C470.102 402.42 469.62 402.555 469.129 402.674L470.271 401.811L460.014 427.938ZM460.369 420.32L453.26 401.76L454.402 402.471L451.305 401.734L451.432 400.059H460.268L460.141 401.734C459.785 401.904 459.362 402.064 458.871 402.217C458.38 402.369 457.889 402.505 457.398 402.623L457.703 401.988L463.086 417.4V419.025L460.369 420.32ZM482.002 419.457C479.192 419.457 476.958 418.568 475.299 416.791C473.64 414.997 472.811 412.593 472.811 409.58C472.811 406.533 473.648 404.113 475.324 402.318C477 400.507 479.251 399.602 482.078 399.602C484.888 399.602 487.114 400.499 488.756 402.293C490.415 404.07 491.244 406.474 491.244 409.504C491.244 412.551 490.406 414.971 488.73 416.766C487.072 418.56 484.829 419.457 482.002 419.457ZM482.434 417.07C485.328 417.07 486.775 414.777 486.775 410.189C486.775 407.549 486.327 405.526 485.43 404.121C484.549 402.699 483.28 401.988 481.621 401.988C478.727 401.988 477.279 404.282 477.279 408.869C477.279 411.51 477.728 413.541 478.625 414.963C479.522 416.368 480.792 417.07 482.434 417.07ZM500.994 419.432C497.456 419.432 495.688 417.451 495.688 413.49V401.988L499.75 402.268V412.678C499.75 414.032 499.995 415.014 500.486 415.623C500.994 416.232 501.79 416.537 502.873 416.537C504.617 416.537 506.428 415.784 508.307 414.277L508.789 415.42C506.521 418.094 503.923 419.432 500.994 419.432ZM495.688 404.959V402.344L496.297 403.359L493.275 401.912L493.402 400.643C494.892 400.152 496.635 399.881 498.633 399.83H499.75V403.994L495.688 404.959ZM511.074 417.502L507.012 416.486V402.039L511.074 402.293V417.502ZM507.012 404.959V402.344L507.621 403.385L504.371 401.836L504.473 400.719C505.285 400.431 506.165 400.219 507.113 400.084C508.061 399.932 509.009 399.847 509.957 399.83H511.074V403.943L507.012 404.959ZM508.129 419.076L507.266 415.775L511.074 414.684V417.451L510.516 416.436L513.613 417.324L513.486 418.797C512.098 419.017 510.312 419.11 508.129 419.076ZM527.604 418.848V399.652C527.604 397.723 527.925 396.055 528.568 394.65C529.212 393.229 530.126 392.137 531.311 391.375C532.495 390.596 533.892 390.207 535.5 390.207C536.482 390.207 537.311 390.342 537.988 390.613L537.734 393.609C536.753 393.372 535.839 393.254 534.992 393.254C533.74 393.254 532.859 393.618 532.352 394.346C531.844 395.057 531.59 396.318 531.59 398.129V400.973L531.641 401.48V418.848H527.604ZM524.379 402.496L524.557 400.465C525.538 400.228 526.622 400.092 527.807 400.059H536.846L536.643 402.496H524.379ZM525.014 419L525.141 417.477C525.632 417.24 526.122 417.045 526.613 416.893C527.104 416.74 527.595 416.605 528.086 416.486L527.604 418.34V414.887H531.641V418.34L531.209 416.715L535.602 417.426L535.475 419H525.014ZM547.865 419.457C545.055 419.457 542.821 418.568 541.162 416.791C539.503 414.997 538.674 412.593 538.674 409.58C538.674 406.533 539.512 404.113 541.188 402.318C542.863 400.507 545.115 399.602 547.941 399.602C550.751 399.602 552.977 400.499 554.619 402.293C556.278 404.07 557.107 406.474 557.107 409.504C557.107 412.551 556.27 414.971 554.594 416.766C552.935 418.56 550.692 419.457 547.865 419.457ZM548.297 417.07C551.191 417.07 552.639 414.777 552.639 410.189C552.639 407.549 552.19 405.526 551.293 404.121C550.413 402.699 549.143 401.988 547.484 401.988C544.59 401.988 543.143 404.282 543.143 408.869C543.143 411.51 543.591 413.541 544.488 414.963C545.385 416.368 546.655 417.07 548.297 417.07ZM562.795 418.848V402.598L566.857 403.893V418.848H562.795ZM560.205 419L560.332 417.477C560.823 417.24 561.314 417.045 561.805 416.893C562.296 416.74 562.786 416.605 563.277 416.486L562.795 418.34V414.887H566.857V418.34L566.451 416.715L570.564 417.426L570.438 419H560.205ZM566.045 406.305L565.537 405.289C566.434 403.342 567.391 401.946 568.406 401.1C569.422 400.236 570.598 399.805 571.936 399.805C572.156 399.805 572.384 399.813 572.621 399.83C572.875 399.847 573.095 399.889 573.281 399.957L573.002 403.461C572.731 403.427 572.435 403.402 572.113 403.385C571.792 403.351 571.504 403.334 571.25 403.334C570.116 403.334 569.134 403.571 568.305 404.045C567.492 404.502 566.739 405.255 566.045 406.305ZM562.795 406.076V402.826L563.404 403.943L559.9 402.268L560.002 401.201C560.747 400.863 561.61 400.575 562.592 400.338C563.574 400.101 564.623 399.932 565.74 399.83L566.705 403.867L562.795 406.076ZM588.16 419L588.414 416.461H594.178C597.936 416.461 599.814 414.988 599.814 412.043C599.814 408.911 597.69 407.346 593.441 407.346H588.414V405.264H593.645C600.872 405.264 604.486 407.337 604.486 411.484C604.486 413.786 603.505 415.615 601.541 416.969C599.594 418.323 596.971 419 593.67 419H588.16ZM586.357 418.619V394.219H590.623V418.619H586.357ZM587.678 406.559L588.16 405.061H593.898C596.962 405.061 598.494 403.588 598.494 400.643C598.494 397.816 597.03 396.402 594.102 396.402H588.033V393.863H594.33C597.14 393.863 599.298 394.405 600.805 395.488C602.311 396.555 603.064 398.087 603.064 400.084C603.064 402.166 602.243 403.766 600.602 404.883C598.96 406 596.598 406.559 593.518 406.559H587.678ZM583.514 419L583.641 417.375C584.521 417.02 585.596 416.689 586.865 416.385L586.357 418.289V414.734H590.623V418.289L590.191 416.588L593.568 417.324L593.441 419H583.514ZM593.467 393.863L593.34 395.488C592.46 395.844 591.385 396.174 590.115 396.479L590.623 394.574V398.129H586.357V394.574L586.789 396.275L583.412 395.539L583.539 393.863H593.467ZM616.877 419.457C614.067 419.457 611.833 418.568 610.174 416.791C608.515 414.997 607.686 412.593 607.686 409.58C607.686 406.533 608.523 404.113 610.199 402.318C611.875 400.507 614.126 399.602 616.953 399.602C619.763 399.602 621.989 400.499 623.631 402.293C625.29 404.07 626.119 406.474 626.119 409.504C626.119 412.551 625.281 414.971 623.605 416.766C621.947 418.56 619.704 419.457 616.877 419.457ZM617.309 417.07C620.203 417.07 621.65 414.777 621.65 410.189C621.65 407.549 621.202 405.526 620.305 404.121C619.424 402.699 618.155 401.988 616.496 401.988C613.602 401.988 612.154 404.282 612.154 408.869C612.154 411.51 612.603 413.541 613.5 414.963C614.397 416.368 615.667 417.07 617.309 417.07ZM638.459 419.457C635.649 419.457 633.415 418.568 631.756 416.791C630.097 414.997 629.268 412.593 629.268 409.58C629.268 406.533 630.105 404.113 631.781 402.318C633.457 400.507 635.708 399.602 638.535 399.602C641.345 399.602 643.571 400.499 645.213 402.293C646.872 404.07 647.701 406.474 647.701 409.504C647.701 412.551 646.863 414.971 645.188 416.766C643.529 418.56 641.286 419.457 638.459 419.457ZM638.891 417.07C641.785 417.07 643.232 414.777 643.232 410.189C643.232 407.549 642.784 405.526 641.887 404.121C641.007 402.699 639.737 401.988 638.078 401.988C635.184 401.988 633.736 404.282 633.736 408.869C633.736 411.51 634.185 413.541 635.082 414.963C635.979 416.368 637.249 417.07 638.891 417.07ZM653.135 418.848V392.238H657.197V418.848H653.135ZM655.039 410.266V407.828H660.041V410.266H655.039ZM665.703 419L658.543 409.682V408.463L665.145 401.303L664.535 402.471L661.387 401.734L661.514 400.059H670.273L670.146 401.684C669.74 401.904 669.292 402.098 668.801 402.268C668.327 402.42 667.844 402.555 667.354 402.674L668.928 401.43L661.666 409.021L661.539 407.27L669.791 417.451L667.988 416.588L671.086 417.324L670.959 419H665.703ZM650.545 419L650.672 417.477C651.163 417.24 651.654 417.045 652.145 416.893C652.635 416.74 653.126 416.605 653.617 416.486L653.135 418.365V414.887H657.197V418.365L656.791 416.689L659.686 417.375L659.559 419H650.545ZM653.135 396.301V393.127L653.516 394.016L650.088 392.67L650.189 391.654C651.781 391.079 653.609 390.749 655.674 390.664H657.197V395.031L653.135 396.301ZM675.631 418.848V401.861L679.693 401.379V418.848H675.631ZM675.631 406.076V402.826L676.24 403.943L672.736 402.268L672.838 401.201C673.583 400.863 674.446 400.575 675.428 400.338C676.41 400.101 677.459 399.932 678.576 399.83H679.693V403.867L675.631 406.076ZM672.889 419L673.016 417.477C673.456 417.273 673.93 417.096 674.438 416.943C674.962 416.774 675.529 416.622 676.139 416.486L675.631 418.365V414.887H679.693V418.365L679.262 416.689L682.537 417.426L682.41 419H672.889ZM677.281 396.555C676.452 396.555 675.792 396.318 675.301 395.844C674.827 395.37 674.59 394.727 674.59 393.914C674.59 393.102 674.827 392.458 675.301 391.984C675.792 391.51 676.452 391.273 677.281 391.273C678.111 391.273 678.762 391.51 679.236 391.984C679.727 392.458 679.973 393.102 679.973 393.914C679.973 394.727 679.727 395.37 679.236 395.844C678.762 396.318 678.111 396.555 677.281 396.555ZM699.193 418.848V406.051C699.193 403.732 698.076 402.572 695.842 402.572C694.081 402.572 692.304 403.283 690.51 404.705L690.002 403.436C691.035 402.217 692.219 401.277 693.557 400.617C694.894 399.957 696.299 399.627 697.771 399.627C699.532 399.627 700.886 400.118 701.834 401.1C702.782 402.064 703.256 403.452 703.256 405.264V418.848H699.193ZM687.717 418.848V401.887L691.779 402.953V418.848H687.717ZM685.127 419L685.254 417.477C685.745 417.24 686.236 417.045 686.727 416.893C687.217 416.74 687.708 416.605 688.199 416.486L687.717 418.365V414.887H691.779V418.365L691.373 416.689L694.471 417.426L694.344 419H685.127ZM697.061 419L697.188 417.375C697.543 417.189 697.924 417.028 698.33 416.893C698.736 416.74 699.185 416.605 699.676 416.486L699.193 418.365V414.887H703.256V418.365L702.85 416.689L705.947 417.426L705.82 419H697.061ZM687.717 406.076V402.826L688.326 403.943L684.822 402.268L684.924 401.201C685.669 400.863 686.532 400.575 687.514 400.338C688.495 400.101 689.545 399.932 690.662 399.83L691.627 403.867L687.717 406.076ZM716.18 413.033C713.895 413.033 712.075 412.432 710.721 411.23C709.367 410.029 708.689 408.404 708.689 406.355C708.689 404.29 709.367 402.657 710.721 401.455C712.092 400.236 713.928 399.627 716.23 399.627C717.568 399.627 718.795 399.915 719.912 400.49C721.046 401.066 721.96 401.853 722.654 402.852C723.348 403.85 723.695 405.001 723.695 406.305C723.695 408.353 723.018 409.986 721.664 411.205C720.31 412.424 718.482 413.033 716.18 413.033ZM716.51 410.9C718.592 410.9 719.633 409.529 719.633 406.787C719.633 403.436 718.38 401.76 715.875 401.76C713.793 401.76 712.752 403.139 712.752 405.898C712.752 407.507 713.074 408.742 713.717 409.605C714.377 410.469 715.308 410.9 716.51 410.9ZM725.727 402.648L719.912 402.344L716.23 399.627C717.026 399.627 717.644 399.678 718.084 399.779C718.524 399.864 718.93 399.957 719.303 400.059C719.675 400.16 720.158 400.211 720.75 400.211C721.173 400.211 721.833 400.186 722.73 400.135C723.645 400.067 724.728 399.974 725.98 399.855L725.727 402.648ZM715.875 427.887C713.421 427.887 711.457 427.421 709.984 426.49C708.529 425.576 707.801 424.34 707.801 422.783C707.801 420.87 709.028 419.313 711.482 418.111L712.904 418.924C711.855 419.753 711.33 420.76 711.33 421.945C711.33 423.13 711.796 424.036 712.727 424.662C713.658 425.288 714.986 425.602 716.713 425.602C718.541 425.602 719.988 425.263 721.055 424.586C722.138 423.926 722.68 423.029 722.68 421.895C722.68 420.71 721.884 420.117 720.293 420.117H714.504C713.031 420.117 711.897 419.779 711.102 419.102C710.306 418.441 709.908 417.493 709.908 416.258C709.908 414.227 711.042 412.644 713.311 411.51L714.859 411.764C713.607 412.695 712.98 413.702 712.98 414.785C712.98 415.936 713.776 416.512 715.367 416.512H721.156C722.849 416.512 724.144 416.876 725.041 417.604C725.955 418.314 726.412 419.347 726.412 420.701C726.412 422.089 725.955 423.325 725.041 424.408C724.144 425.492 722.9 426.338 721.309 426.947C719.734 427.574 717.923 427.887 715.875 427.887ZM30.1758 455.711L38.5293 479.35L37.4121 478.613L40.7383 479.324L40.6113 481H31.1152L31.2422 479.273C32.0716 478.918 33.0788 478.622 34.2637 478.385L33.9336 479.096L26.8242 457.463L25.9609 455.838C26.5534 455.753 27.2305 455.702 27.9922 455.686C28.7539 455.669 29.4818 455.677 30.1758 455.711ZM28.6523 455.863L20.832 479.35L20.6543 478.588L23.752 479.324L23.625 481H15.627L15.7539 479.375C16.1771 479.155 16.651 478.969 17.1758 478.816C17.7005 478.647 18.2422 478.512 18.8008 478.41L17.6582 479.35L25.9609 455.838L28.6523 455.863ZM21.4668 473.865L22.3047 471.428H33.0957L33.959 473.865H21.4668ZM64.4785 481.432C60.2467 481.432 56.9967 480.357 54.7285 478.207C52.4603 476.057 51.3262 472.977 51.3262 468.965C51.3262 466.206 51.8509 463.819 52.9004 461.805C53.9499 459.773 55.4395 458.208 57.3691 457.107C59.3158 455.99 61.6009 455.432 64.2246 455.432C65.5618 455.432 66.8737 455.576 68.1602 455.863C69.4466 456.134 70.5046 456.507 71.334 456.98C71.6387 459.012 71.7233 461.018 71.5879 462.998H69.7344L67.2969 457.311L69.5566 459.266C67.7454 458.335 65.8158 457.869 63.7676 457.869C58.7233 457.869 56.2012 461.263 56.2012 468.051C56.2012 475.346 59.1126 478.994 64.9355 478.994C67.0514 478.994 68.9811 478.52 70.7246 477.572L70.5723 479.045L67.1953 479.35L70.3184 473.459H72.2734C72.3073 475.423 72.0365 477.555 71.4609 479.857C70.5977 480.348 69.5397 480.729 68.2871 481C67.0514 481.288 65.7819 481.432 64.4785 481.432ZM84.4863 481.457C81.6764 481.457 79.4421 480.568 77.7832 478.791C76.1243 476.997 75.2949 474.593 75.2949 471.58C75.2949 468.533 76.1328 466.113 77.8086 464.318C79.4844 462.507 81.7357 461.602 84.5625 461.602C87.3724 461.602 89.5983 462.499 91.2402 464.293C92.8991 466.07 93.7285 468.474 93.7285 471.504C93.7285 474.551 92.8906 476.971 91.2148 478.766C89.556 480.56 87.3132 481.457 84.4863 481.457ZM84.918 479.07C87.8125 479.07 89.2598 476.777 89.2598 472.189C89.2598 469.549 88.8112 467.526 87.9141 466.121C87.0339 464.699 85.7643 463.988 84.1055 463.988C81.2109 463.988 79.7637 466.282 79.7637 470.869C79.7637 473.51 80.2122 475.541 81.1094 476.963C82.0065 478.368 83.276 479.07 84.918 479.07ZM110.893 480.848V468.051C110.893 465.732 109.775 464.572 107.541 464.572C105.781 464.572 104.003 465.283 102.209 466.705L101.701 465.436C102.734 464.217 103.919 463.277 105.256 462.617C106.593 461.957 107.998 461.627 109.471 461.627C111.231 461.627 112.585 462.118 113.533 463.1C114.481 464.064 114.955 465.452 114.955 467.264V480.848H110.893ZM99.416 480.848V463.887L103.479 464.953V480.848H99.416ZM96.8262 481L96.9531 479.477C97.444 479.24 97.9349 479.045 98.4258 478.893C98.9167 478.74 99.4076 478.605 99.8984 478.486L99.416 480.365V476.887H103.479V480.365L103.072 478.689L106.17 479.426L106.043 481H96.8262ZM108.76 481L108.887 479.375C109.242 479.189 109.623 479.028 110.029 478.893C110.436 478.74 110.884 478.605 111.375 478.486L110.893 480.365V476.887H114.955V480.365L114.549 478.689L117.646 479.426L117.52 481H108.76ZM99.416 468.076V464.826L100.025 465.943L96.5215 464.268L96.623 463.201C97.3678 462.863 98.2311 462.575 99.2129 462.338C100.195 462.101 101.244 461.932 102.361 461.83L103.326 465.867L99.416 468.076ZM122.826 480.848V461.652C122.826 459.723 123.148 458.055 123.791 456.65C124.434 455.229 125.348 454.137 126.533 453.375C127.718 452.596 129.115 452.207 130.723 452.207C131.704 452.207 132.534 452.342 133.211 452.613L132.957 455.609C131.975 455.372 131.061 455.254 130.215 455.254C128.962 455.254 128.082 455.618 127.574 456.346C127.066 457.057 126.812 458.318 126.812 460.129V462.973L126.863 463.48V480.848H122.826ZM119.602 464.496L119.779 462.465C120.761 462.228 121.844 462.092 123.029 462.059H132.068L131.865 464.496H119.602ZM120.236 481L120.363 479.477C120.854 479.24 121.345 479.045 121.836 478.893C122.327 478.74 122.818 478.605 123.309 478.486L122.826 480.34V476.887H126.863V480.34L126.432 478.715L130.824 479.426L130.697 481H120.236ZM136.791 480.848V463.861L140.854 463.379V480.848H136.791ZM136.791 468.076V464.826L137.4 465.943L133.896 464.268L133.998 463.201C134.743 462.863 135.606 462.575 136.588 462.338C137.57 462.101 138.619 461.932 139.736 461.83H140.854V465.867L136.791 468.076ZM134.049 481L134.176 479.477C134.616 479.273 135.09 479.096 135.598 478.943C136.122 478.774 136.689 478.622 137.299 478.486L136.791 480.365V476.887H140.854V480.365L140.422 478.689L143.697 479.426L143.57 481H134.049ZM138.441 458.555C137.612 458.555 136.952 458.318 136.461 457.844C135.987 457.37 135.75 456.727 135.75 455.914C135.75 455.102 135.987 454.458 136.461 453.984C136.952 453.51 137.612 453.273 138.441 453.273C139.271 453.273 139.923 453.51 140.396 453.984C140.887 454.458 141.133 455.102 141.133 455.914C141.133 456.727 140.887 457.37 140.396 457.844C139.923 458.318 139.271 458.555 138.441 458.555ZM148.877 480.848V464.598L152.939 465.893V480.848H148.877ZM146.287 481L146.414 479.477C146.905 479.24 147.396 479.045 147.887 478.893C148.378 478.74 148.868 478.605 149.359 478.486L148.877 480.34V476.887H152.939V480.34L152.533 478.715L156.646 479.426L156.52 481H146.287ZM152.127 468.305L151.619 467.289C152.516 465.342 153.473 463.946 154.488 463.1C155.504 462.236 156.68 461.805 158.018 461.805C158.238 461.805 158.466 461.813 158.703 461.83C158.957 461.847 159.177 461.889 159.363 461.957L159.084 465.461C158.813 465.427 158.517 465.402 158.195 465.385C157.874 465.351 157.586 465.334 157.332 465.334C156.198 465.334 155.216 465.571 154.387 466.045C153.574 466.502 152.821 467.255 152.127 468.305ZM148.877 468.076V464.826L149.486 465.943L145.982 464.268L146.084 463.201C146.829 462.863 147.692 462.575 148.674 462.338C149.656 462.101 150.705 461.932 151.822 461.83L152.787 465.867L148.877 468.076ZM186.607 480.848V468.051C186.607 465.732 185.516 464.572 183.332 464.572C181.673 464.572 179.93 465.283 178.102 466.705L177.594 465.436C179.76 462.896 182.316 461.627 185.262 461.627C186.988 461.627 188.317 462.118 189.248 463.1C190.196 464.064 190.67 465.452 190.67 467.264V480.848H186.607ZM161.521 481L161.648 479.477C162.139 479.24 162.63 479.045 163.121 478.893C163.612 478.74 164.103 478.605 164.594 478.486L164.111 480.365V476.887H168.174V480.365L167.768 478.689L170.764 479.426L170.637 481H161.521ZM164.111 480.848V463.887L168.174 464.953V480.848H164.111ZM173.201 481L173.328 479.375C173.684 479.189 174.064 479.028 174.471 478.893C174.877 478.74 175.326 478.605 175.816 478.486L175.334 480.365V476.887H179.396V480.365L178.99 478.689L181.986 479.426L181.859 481H173.201ZM175.334 480.848V468.051C175.334 465.732 174.259 464.572 172.109 464.572C170.434 464.572 168.699 465.283 166.904 466.705L166.396 465.436C168.546 462.896 171.085 461.627 174.014 461.627C175.723 461.627 177.044 462.101 177.975 463.049C178.923 463.98 179.396 465.351 179.396 467.162V480.848H175.334ZM164.111 468.076V464.826L164.721 465.943L161.217 464.268L161.318 463.201C162.063 462.863 162.926 462.575 163.908 462.338C164.89 462.101 165.939 461.932 167.057 461.83L168.021 465.867L164.111 468.076ZM184.475 481L184.602 479.375C184.957 479.189 185.338 479.028 185.744 478.893C186.15 478.74 186.599 478.605 187.09 478.486L186.607 480.365V476.887H190.67V480.365L190.264 478.689L193.361 479.426L193.234 481H184.475ZM206.311 478.258C206.311 476.853 206.327 475.423 206.361 473.967C206.395 472.494 206.412 471.115 206.412 469.828V467.594C206.412 465.19 205.244 463.988 202.908 463.988C201.368 463.988 199.946 464.479 198.643 465.461L197.018 467.518C196.967 466.062 197.051 464.733 197.271 463.531C199.54 462.262 201.935 461.627 204.457 461.627C208.435 461.627 210.424 463.523 210.424 467.314C210.424 467.788 210.415 468.499 210.398 469.447C210.382 470.378 210.365 471.385 210.348 472.469C210.331 473.535 210.314 474.542 210.297 475.49C210.28 476.421 210.271 477.141 210.271 477.648L206.311 478.258ZM197.018 467.518L197.373 464.623L201.258 463.15L199.176 467.518H197.018ZM201.105 481.381C199.497 481.381 198.219 480.924 197.271 480.01C196.324 479.079 195.85 477.835 195.85 476.277C195.85 472.909 198.296 470.708 203.188 469.676L207.326 468.812L207.58 470.996L203.949 471.453C202.561 471.622 201.554 472.003 200.928 472.596C200.301 473.171 199.988 474.035 199.988 475.186C199.988 477.42 200.953 478.537 202.883 478.537C204.237 478.537 205.811 477.902 207.605 476.633L208.062 477.547C206.014 480.103 203.695 481.381 201.105 481.381ZM207.326 481.076L206.463 477.775L210.271 476.684V479.451L209.713 478.436L212.811 479.324L212.684 480.797C211.296 481.017 209.51 481.11 207.326 481.076ZM222.484 481.305C219.065 481.305 217.355 479.57 217.355 476.1V463.861L217.584 462.059L218.523 457.234H221.418V475.338C221.418 476.455 221.621 477.268 222.027 477.775C222.451 478.266 223.128 478.512 224.059 478.512C224.82 478.512 225.794 478.368 226.979 478.08L226.826 480.264C225.574 480.958 224.126 481.305 222.484 481.305ZM214.156 464.496L214.334 462.465C215.316 462.228 216.399 462.092 217.584 462.059H226.877L226.674 464.496H214.156ZM232.057 480.848V463.861L236.119 463.379V480.848H232.057ZM232.057 468.076V464.826L232.666 465.943L229.162 464.268L229.264 463.201C230.008 462.863 230.872 462.575 231.854 462.338C232.835 462.101 233.885 461.932 235.002 461.83H236.119V465.867L232.057 468.076ZM229.314 481L229.441 479.477C229.882 479.273 230.355 479.096 230.863 478.943C231.388 478.774 231.955 478.622 232.564 478.486L232.057 480.365V476.887H236.119V480.365L235.688 478.689L238.963 479.426L238.836 481H229.314ZM233.707 458.555C232.878 458.555 232.217 458.318 231.727 457.844C231.253 457.37 231.016 456.727 231.016 455.914C231.016 455.102 231.253 454.458 231.727 453.984C232.217 453.51 232.878 453.273 233.707 453.273C234.536 453.273 235.188 453.51 235.662 453.984C236.153 454.458 236.398 455.102 236.398 455.914C236.398 456.727 236.153 457.37 235.662 457.844C235.188 458.318 234.536 458.555 233.707 458.555ZM250.795 481.457C247.985 481.457 245.751 480.568 244.092 478.791C242.433 476.997 241.604 474.593 241.604 471.58C241.604 468.533 242.441 466.113 244.117 464.318C245.793 462.507 248.044 461.602 250.871 461.602C253.681 461.602 255.907 462.499 257.549 464.293C259.208 466.07 260.037 468.474 260.037 471.504C260.037 474.551 259.199 476.971 257.523 478.766C255.865 480.56 253.622 481.457 250.795 481.457ZM251.227 479.07C254.121 479.07 255.568 476.777 255.568 472.189C255.568 469.549 255.12 467.526 254.223 466.121C253.342 464.699 252.073 463.988 250.414 463.988C247.52 463.988 246.072 466.282 246.072 470.869C246.072 473.51 246.521 475.541 247.418 476.963C248.315 478.368 249.585 479.07 251.227 479.07ZM277.201 480.848V468.051C277.201 465.732 276.084 464.572 273.85 464.572C272.089 464.572 270.312 465.283 268.518 466.705L268.01 465.436C269.042 464.217 270.227 463.277 271.564 462.617C272.902 461.957 274.307 461.627 275.779 461.627C277.54 461.627 278.894 462.118 279.842 463.1C280.79 464.064 281.264 465.452 281.264 467.264V480.848H277.201ZM265.725 480.848V463.887L269.787 464.953V480.848H265.725ZM263.135 481L263.262 479.477C263.753 479.24 264.243 479.045 264.734 478.893C265.225 478.74 265.716 478.605 266.207 478.486L265.725 480.365V476.887H269.787V480.365L269.381 478.689L272.479 479.426L272.352 481H263.135ZM275.068 481L275.195 479.375C275.551 479.189 275.932 479.028 276.338 478.893C276.744 478.74 277.193 478.605 277.684 478.486L277.201 480.365V476.887H281.264V480.365L280.857 478.689L283.955 479.426L283.828 481H275.068ZM265.725 468.076V464.826L266.334 465.943L262.83 464.268L262.932 463.201C263.676 462.863 264.54 462.575 265.521 462.338C266.503 462.101 267.553 461.932 268.67 461.83L269.635 465.867L265.725 468.076ZM304.801 481.406C301.737 481.406 299.376 480.577 297.717 478.918C296.058 477.259 295.229 474.889 295.229 471.809C295.229 468.677 296.041 466.197 297.666 464.369C299.291 462.524 301.483 461.602 304.242 461.602C306.714 461.602 308.618 462.38 309.955 463.938C311.292 465.478 311.961 467.695 311.961 470.59C311.961 470.844 311.952 471.098 311.936 471.352C311.919 471.605 311.893 471.851 311.859 472.088L307.594 471.275C307.594 468.686 307.281 466.815 306.654 465.664C306.045 464.513 305.046 463.938 303.658 463.938C300.95 463.938 299.596 466.079 299.596 470.361C299.596 475.761 301.754 478.461 306.07 478.461C307.763 478.461 309.532 478.114 311.377 477.42L311.199 479.807C310.404 480.314 309.447 480.712 308.33 481C307.23 481.271 306.053 481.406 304.801 481.406ZM296.879 472.088V470.006H311.453L311.859 472.088H296.879ZM340.068 480.848V468.051C340.068 465.732 338.977 464.572 336.793 464.572C335.134 464.572 333.391 465.283 331.562 466.705L331.055 465.436C333.221 462.896 335.777 461.627 338.723 461.627C340.449 461.627 341.778 462.118 342.709 463.1C343.657 464.064 344.131 465.452 344.131 467.264V480.848H340.068ZM314.982 481L315.109 479.477C315.6 479.24 316.091 479.045 316.582 478.893C317.073 478.74 317.564 478.605 318.055 478.486L317.572 480.365V476.887H321.635V480.365L321.229 478.689L324.225 479.426L324.098 481H314.982ZM317.572 480.848V463.887L321.635 464.953V480.848H317.572ZM326.662 481L326.789 479.375C327.145 479.189 327.525 479.028 327.932 478.893C328.338 478.74 328.786 478.605 329.277 478.486L328.795 480.365V476.887H332.857V480.365L332.451 478.689L335.447 479.426L335.32 481H326.662ZM328.795 480.848V468.051C328.795 465.732 327.72 464.572 325.57 464.572C323.895 464.572 322.16 465.283 320.365 466.705L319.857 465.436C322.007 462.896 324.546 461.627 327.475 461.627C329.184 461.627 330.505 462.101 331.436 463.049C332.383 463.98 332.857 465.351 332.857 467.162V480.848H328.795ZM317.572 468.076V464.826L318.182 465.943L314.678 464.268L314.779 463.201C315.524 462.863 316.387 462.575 317.369 462.338C318.351 462.101 319.4 461.932 320.518 461.83L321.482 465.867L317.572 468.076ZM337.936 481L338.062 479.375C338.418 479.189 338.799 479.028 339.205 478.893C339.611 478.74 340.06 478.605 340.551 478.486L340.068 480.365V476.887H344.131V480.365L343.725 478.689L346.822 479.426L346.695 481H337.936ZM359.771 478.258C359.771 476.853 359.788 475.423 359.822 473.967C359.856 472.494 359.873 471.115 359.873 469.828V467.594C359.873 465.19 358.705 463.988 356.369 463.988C354.829 463.988 353.407 464.479 352.104 465.461L350.479 467.518C350.428 466.062 350.512 464.733 350.732 463.531C353.001 462.262 355.396 461.627 357.918 461.627C361.896 461.627 363.885 463.523 363.885 467.314C363.885 467.788 363.876 468.499 363.859 469.447C363.842 470.378 363.826 471.385 363.809 472.469C363.792 473.535 363.775 474.542 363.758 475.49C363.741 476.421 363.732 477.141 363.732 477.648L359.771 478.258ZM350.479 467.518L350.834 464.623L354.719 463.15L352.637 467.518H350.479ZM354.566 481.381C352.958 481.381 351.68 480.924 350.732 480.01C349.785 479.079 349.311 477.835 349.311 476.277C349.311 472.909 351.757 470.708 356.648 469.676L360.787 468.812L361.041 470.996L357.41 471.453C356.022 471.622 355.015 472.003 354.389 472.596C353.762 473.171 353.449 474.035 353.449 475.186C353.449 477.42 354.414 478.537 356.344 478.537C357.698 478.537 359.272 477.902 361.066 476.633L361.523 477.547C359.475 480.103 357.156 481.381 354.566 481.381ZM360.787 481.076L359.924 477.775L363.732 476.684V479.451L363.174 478.436L366.271 479.324L366.145 480.797C364.757 481.017 362.971 481.11 360.787 481.076ZM371.705 480.848V463.861L375.768 463.379V480.848H371.705ZM371.705 468.076V464.826L372.314 465.943L368.811 464.268L368.912 463.201C369.657 462.863 370.52 462.575 371.502 462.338C372.484 462.101 373.533 461.932 374.65 461.83H375.768V465.867L371.705 468.076ZM368.963 481L369.09 479.477C369.53 479.273 370.004 479.096 370.512 478.943C371.036 478.774 371.604 478.622 372.213 478.486L371.705 480.365V476.887H375.768V480.365L375.336 478.689L378.611 479.426L378.484 481H368.963ZM373.355 458.555C372.526 458.555 371.866 458.318 371.375 457.844C370.901 457.37 370.664 456.727 370.664 455.914C370.664 455.102 370.901 454.458 371.375 453.984C371.866 453.51 372.526 453.273 373.355 453.273C374.185 453.273 374.837 453.51 375.311 453.984C375.801 454.458 376.047 455.102 376.047 455.914C376.047 456.727 375.801 457.37 375.311 457.844C374.837 458.318 374.185 458.555 373.355 458.555ZM383.893 480.848V454.746L387.955 455.482V480.848H383.893ZM380.998 481L381.125 479.477C381.582 479.29 382.073 479.121 382.598 478.969C383.139 478.799 383.732 478.639 384.375 478.486L383.893 480.365V476.887H387.955V480.365L387.549 478.689L390.951 479.426L390.824 481H380.998ZM383.893 458.301V455.127L384.273 456.016L380.846 454.67L380.947 453.654C382.538 453.079 384.367 452.749 386.432 452.664H387.955V457.031L383.893 458.301ZM404.611 480.848V454.746L408.674 455.482V480.848H404.611ZM416.189 480.848V468.051C416.189 465.732 415.055 464.572 412.787 464.572C410.993 464.572 409.199 465.283 407.404 466.705L406.896 465.436C409.046 462.896 411.645 461.627 414.691 461.627C416.486 461.627 417.857 462.118 418.805 463.1C419.77 464.064 420.252 465.452 420.252 467.264V480.848H416.189ZM402.021 481L402.148 479.477C402.639 479.24 403.13 479.045 403.621 478.893C404.112 478.74 404.603 478.605 405.094 478.486L404.611 480.365V476.887H408.674V480.365L408.268 478.689L411.365 479.426L411.238 481H402.021ZM414.057 481L414.184 479.375C414.539 479.189 414.92 479.028 415.326 478.893C415.732 478.74 416.181 478.605 416.672 478.486L416.189 480.365V476.887H420.252V480.365L419.846 478.689L422.943 479.426L422.816 481H414.057ZM404.611 458.301V455.127L404.992 456.016L401.564 454.67L401.666 453.654C403.257 453.079 405.085 452.749 407.15 452.664H408.674V457.031L404.611 458.301ZM435.893 478.258C435.893 476.853 435.91 475.423 435.943 473.967C435.977 472.494 435.994 471.115 435.994 469.828V467.594C435.994 465.19 434.826 463.988 432.49 463.988C430.95 463.988 429.528 464.479 428.225 465.461L426.6 467.518C426.549 466.062 426.633 464.733 426.854 463.531C429.122 462.262 431.517 461.627 434.039 461.627C438.017 461.627 440.006 463.523 440.006 467.314C440.006 467.788 439.997 468.499 439.98 469.447C439.964 470.378 439.947 471.385 439.93 472.469C439.913 473.535 439.896 474.542 439.879 475.49C439.862 476.421 439.854 477.141 439.854 477.648L435.893 478.258ZM426.6 467.518L426.955 464.623L430.84 463.15L428.758 467.518H426.6ZM430.688 481.381C429.079 481.381 427.801 480.924 426.854 480.01C425.906 479.079 425.432 477.835 425.432 476.277C425.432 472.909 427.878 470.708 432.77 469.676L436.908 468.812L437.162 470.996L433.531 471.453C432.143 471.622 431.136 472.003 430.51 472.596C429.883 473.171 429.57 474.035 429.57 475.186C429.57 477.42 430.535 478.537 432.465 478.537C433.819 478.537 435.393 477.902 437.188 476.633L437.645 477.547C435.596 480.103 433.277 481.381 430.688 481.381ZM436.908 481.076L436.045 477.775L439.854 476.684V479.451L439.295 478.436L442.393 479.324L442.266 480.797C440.878 481.017 439.092 481.11 436.908 481.076ZM451.355 481.406C449.003 481.406 447.048 480.865 445.49 479.781C445.355 479.155 445.253 478.436 445.186 477.623C445.118 476.794 445.109 475.947 445.16 475.084H447.141L449.223 479.451L447.572 477.928C448.859 478.757 450.255 479.172 451.762 479.172C453.945 479.172 455.037 478.3 455.037 476.557C455.037 475.27 454.157 474.339 452.396 473.764L450.314 473.104C447.031 472.071 445.389 470.192 445.389 467.467C445.389 465.689 446.015 464.276 447.268 463.227C448.52 462.177 450.196 461.652 452.295 461.652C454.191 461.652 455.892 462.042 457.398 462.82C457.686 464.107 457.805 465.52 457.754 467.061H455.672L453.59 462.693L456.078 465.08C454.622 464.285 453.226 463.887 451.889 463.887C450.027 463.887 449.096 464.691 449.096 466.299C449.096 467.602 450.035 468.559 451.914 469.168L453.996 469.828C455.638 470.353 456.857 471.072 457.652 471.986C458.448 472.9 458.846 474.035 458.846 475.389C458.846 477.234 458.169 478.698 456.814 479.781C455.46 480.865 453.641 481.406 451.355 481.406ZM479.336 481.457C476.763 481.457 474.969 480.661 473.953 479.07L474.766 477.166C476.272 478.436 477.889 479.07 479.615 479.07C481.274 479.07 482.544 478.444 483.424 477.191C484.304 475.922 484.744 474.119 484.744 471.783C484.744 469.464 484.304 467.678 483.424 466.426C482.561 465.173 481.325 464.547 479.717 464.547C478.176 464.547 476.594 465.182 474.969 466.451L474.486 465.359C476.585 462.854 478.938 461.602 481.545 461.602C483.864 461.602 485.701 462.439 487.055 464.115C488.426 465.791 489.111 468.051 489.111 470.895C489.111 474.111 488.223 476.675 486.445 478.588C484.685 480.501 482.315 481.457 479.336 481.457ZM472.049 481L472.201 477.344V453.832L476.264 454.848V479.07L474.893 479.984C474.571 480.374 474.199 480.712 473.775 481H472.049ZM472.201 458.301V455.127L472.582 456.016L469.154 454.67L469.256 453.654C470.847 453.079 472.675 452.749 474.74 452.664H476.264V457.031L472.201 458.301ZM501.68 481.406C498.616 481.406 496.255 480.577 494.596 478.918C492.937 477.259 492.107 474.889 492.107 471.809C492.107 468.677 492.92 466.197 494.545 464.369C496.17 462.524 498.362 461.602 501.121 461.602C503.592 461.602 505.497 462.38 506.834 463.938C508.171 465.478 508.84 467.695 508.84 470.59C508.84 470.844 508.831 471.098 508.814 471.352C508.798 471.605 508.772 471.851 508.738 472.088L504.473 471.275C504.473 468.686 504.16 466.815 503.533 465.664C502.924 464.513 501.925 463.938 500.537 463.938C497.829 463.938 496.475 466.079 496.475 470.361C496.475 475.761 498.633 478.461 502.949 478.461C504.642 478.461 506.411 478.114 508.256 477.42L508.078 479.807C507.283 480.314 506.326 480.712 505.209 481C504.109 481.271 502.932 481.406 501.68 481.406ZM493.758 472.088V470.006H508.332L508.738 472.088H493.758ZM521.484 481.406C518.421 481.406 516.059 480.577 514.4 478.918C512.742 477.259 511.912 474.889 511.912 471.809C511.912 468.677 512.725 466.197 514.35 464.369C515.975 462.524 518.167 461.602 520.926 461.602C523.397 461.602 525.301 462.38 526.639 463.938C527.976 465.478 528.645 467.695 528.645 470.59C528.645 470.844 528.636 471.098 528.619 471.352C528.602 471.605 528.577 471.851 528.543 472.088L524.277 471.275C524.277 468.686 523.964 466.815 523.338 465.664C522.729 464.513 521.73 463.938 520.342 463.938C517.633 463.938 516.279 466.079 516.279 470.361C516.279 475.761 518.438 478.461 522.754 478.461C524.447 478.461 526.215 478.114 528.061 477.42L527.883 479.807C527.087 480.314 526.131 480.712 525.014 481C523.913 481.271 522.737 481.406 521.484 481.406ZM513.562 472.088V470.006H528.137L528.543 472.088H513.562ZM545.732 480.848V468.051C545.732 465.732 544.615 464.572 542.381 464.572C540.62 464.572 538.843 465.283 537.049 466.705L536.541 465.436C537.574 464.217 538.758 463.277 540.096 462.617C541.433 461.957 542.838 461.627 544.311 461.627C546.071 461.627 547.425 462.118 548.373 463.1C549.321 464.064 549.795 465.452 549.795 467.264V480.848H545.732ZM534.256 480.848V463.887L538.318 464.953V480.848H534.256ZM531.666 481L531.793 479.477C532.284 479.24 532.775 479.045 533.266 478.893C533.757 478.74 534.247 478.605 534.738 478.486L534.256 480.365V476.887H538.318V480.365L537.912 478.689L541.01 479.426L540.883 481H531.666ZM543.6 481L543.727 479.375C544.082 479.189 544.463 479.028 544.869 478.893C545.275 478.74 545.724 478.605 546.215 478.486L545.732 480.365V476.887H549.795V480.365L549.389 478.689L552.486 479.426L552.359 481H543.6ZM534.256 468.076V464.826L534.865 465.943L531.361 464.268L531.463 463.201C532.208 462.863 533.071 462.575 534.053 462.338C535.035 462.101 536.084 461.932 537.201 461.83L538.166 465.867L534.256 468.076ZM569.93 481.406C567.577 481.406 565.622 480.865 564.064 479.781C563.929 479.155 563.827 478.436 563.76 477.623C563.692 476.794 563.684 475.947 563.734 475.084H565.715L567.797 479.451L566.146 477.928C567.433 478.757 568.829 479.172 570.336 479.172C572.52 479.172 573.611 478.3 573.611 476.557C573.611 475.27 572.731 474.339 570.971 473.764L568.889 473.104C565.605 472.071 563.963 470.192 563.963 467.467C563.963 465.689 564.589 464.276 565.842 463.227C567.094 462.177 568.77 461.652 570.869 461.652C572.765 461.652 574.466 462.042 575.973 462.82C576.26 464.107 576.379 465.52 576.328 467.061H574.246L572.164 462.693L574.652 465.08C573.197 464.285 571.8 463.887 570.463 463.887C568.601 463.887 567.67 464.691 567.67 466.299C567.67 467.602 568.609 468.559 570.488 469.168L572.57 469.828C574.212 470.353 575.431 471.072 576.227 471.986C577.022 472.9 577.42 474.035 577.42 475.389C577.42 477.234 576.743 478.698 575.389 479.781C574.035 480.865 572.215 481.406 569.93 481.406ZM590.141 481.406C587.077 481.406 584.715 480.577 583.057 478.918C581.398 477.259 580.568 474.889 580.568 471.809C580.568 468.677 581.381 466.197 583.006 464.369C584.631 462.524 586.823 461.602 589.582 461.602C592.053 461.602 593.958 462.38 595.295 463.938C596.632 465.478 597.301 467.695 597.301 470.59C597.301 470.844 597.292 471.098 597.275 471.352C597.258 471.605 597.233 471.851 597.199 472.088L592.934 471.275C592.934 468.686 592.62 466.815 591.994 465.664C591.385 464.513 590.386 463.938 588.998 463.938C586.29 463.938 584.936 466.079 584.936 470.361C584.936 475.761 587.094 478.461 591.41 478.461C593.103 478.461 594.872 478.114 596.717 477.42L596.539 479.807C595.743 480.314 594.787 480.712 593.67 481C592.57 481.271 591.393 481.406 590.141 481.406ZM582.219 472.088V470.006H596.793L597.199 472.088H582.219ZM614.389 480.848V468.051C614.389 465.732 613.271 464.572 611.037 464.572C609.277 464.572 607.499 465.283 605.705 466.705L605.197 465.436C606.23 464.217 607.415 463.277 608.752 462.617C610.089 461.957 611.494 461.627 612.967 461.627C614.727 461.627 616.081 462.118 617.029 463.1C617.977 464.064 618.451 465.452 618.451 467.264V480.848H614.389ZM602.912 480.848V463.887L606.975 464.953V480.848H602.912ZM600.322 481L600.449 479.477C600.94 479.24 601.431 479.045 601.922 478.893C602.413 478.74 602.904 478.605 603.395 478.486L602.912 480.365V476.887H606.975V480.365L606.568 478.689L609.666 479.426L609.539 481H600.322ZM612.256 481L612.383 479.375C612.738 479.189 613.119 479.028 613.525 478.893C613.932 478.74 614.38 478.605 614.871 478.486L614.389 480.365V476.887H618.451V480.365L618.045 478.689L621.143 479.426L621.016 481H612.256ZM602.912 468.076V464.826L603.521 465.943L600.018 464.268L600.119 463.201C600.864 462.863 601.727 462.575 602.709 462.338C603.691 462.101 604.74 461.932 605.857 461.83L606.822 465.867L602.912 468.076ZM630.664 481.305C627.245 481.305 625.535 479.57 625.535 476.1V463.861L625.764 462.059L626.703 457.234H629.598V475.338C629.598 476.455 629.801 477.268 630.207 477.775C630.63 478.266 631.307 478.512 632.238 478.512C633 478.512 633.973 478.368 635.158 478.08L635.006 480.264C633.753 480.958 632.306 481.305 630.664 481.305ZM622.336 464.496L622.514 462.465C623.495 462.228 624.579 462.092 625.764 462.059H635.057L634.854 464.496H622.336ZM653.363 481.305C649.944 481.305 648.234 479.57 648.234 476.1V463.861L648.463 462.059L649.402 457.234H652.297V475.338C652.297 476.455 652.5 477.268 652.906 477.775C653.329 478.266 654.007 478.512 654.938 478.512C655.699 478.512 656.673 478.368 657.857 478.08L657.705 480.264C656.452 480.958 655.005 481.305 653.363 481.305ZM645.035 464.496L645.213 462.465C646.195 462.228 647.278 462.092 648.463 462.059H657.756L657.553 464.496H645.035ZM668.979 481.457C666.169 481.457 663.934 480.568 662.275 478.791C660.617 476.997 659.787 474.593 659.787 471.58C659.787 468.533 660.625 466.113 662.301 464.318C663.977 462.507 666.228 461.602 669.055 461.602C671.865 461.602 674.09 462.499 675.732 464.293C677.391 466.07 678.221 468.474 678.221 471.504C678.221 474.551 677.383 476.971 675.707 478.766C674.048 480.56 671.805 481.457 668.979 481.457ZM669.41 479.07C672.305 479.07 673.752 476.777 673.752 472.189C673.752 469.549 673.303 467.526 672.406 466.121C671.526 464.699 670.257 463.988 668.598 463.988C665.703 463.988 664.256 466.282 664.256 470.869C664.256 473.51 664.704 475.541 665.602 476.963C666.499 478.368 667.768 479.07 669.41 479.07ZM696.807 489.938C695.419 489.751 694.124 489.379 692.922 488.82L697.264 480.441L698.076 479.781L704.018 463.785L704.17 464.471L701.352 463.734L701.479 462.059H708.74L708.613 463.684C708.258 463.904 707.843 464.098 707.369 464.268C706.895 464.42 706.413 464.555 705.922 464.674L707.064 463.811L696.807 489.938ZM697.162 482.32L690.053 463.76L691.195 464.471L688.098 463.734L688.225 462.059H697.061L696.934 463.734C696.578 463.904 696.155 464.064 695.664 464.217C695.173 464.369 694.682 464.505 694.191 464.623L694.496 463.988L699.879 479.4V481.025L697.162 482.32ZM718.795 481.457C715.985 481.457 713.751 480.568 712.092 478.791C710.433 476.997 709.604 474.593 709.604 471.58C709.604 468.533 710.441 466.113 712.117 464.318C713.793 462.507 716.044 461.602 718.871 461.602C721.681 461.602 723.907 462.499 725.549 464.293C727.208 466.07 728.037 468.474 728.037 471.504C728.037 474.551 727.199 476.971 725.523 478.766C723.865 480.56 721.622 481.457 718.795 481.457ZM719.227 479.07C722.121 479.07 723.568 476.777 723.568 472.189C723.568 469.549 723.12 467.526 722.223 466.121C721.342 464.699 720.073 463.988 718.414 463.988C715.52 463.988 714.072 466.282 714.072 470.869C714.072 473.51 714.521 475.541 715.418 476.963C716.315 478.368 717.585 479.07 719.227 479.07ZM737.787 481.432C734.249 481.432 732.48 479.451 732.48 475.49V463.988L736.543 464.268V474.678C736.543 476.032 736.788 477.014 737.279 477.623C737.787 478.232 738.583 478.537 739.666 478.537C741.41 478.537 743.221 477.784 745.1 476.277L745.582 477.42C743.314 480.094 740.715 481.432 737.787 481.432ZM732.48 466.959V464.344L733.09 465.359L730.068 463.912L730.195 462.643C731.685 462.152 733.428 461.881 735.426 461.83H736.543V465.994L732.48 466.959ZM747.867 479.502L743.805 478.486V464.039L747.867 464.293V479.502ZM743.805 466.959V464.344L744.414 465.385L741.164 463.836L741.266 462.719C742.078 462.431 742.958 462.219 743.906 462.084C744.854 461.932 745.802 461.847 746.75 461.83H747.867V465.943L743.805 466.959ZM744.922 481.076L744.059 477.775L747.867 476.684V479.451L747.309 478.436L750.406 479.324L750.279 480.797C748.891 481.017 747.105 481.11 744.922 481.076ZM755.764 480.848V464.598L759.826 465.893V480.848H755.764ZM753.174 481L753.301 479.477C753.792 479.24 754.283 479.045 754.773 478.893C755.264 478.74 755.755 478.605 756.246 478.486L755.764 480.34V476.887H759.826V480.34L759.42 478.715L763.533 479.426L763.406 481H753.174ZM759.014 468.305L758.506 467.289C759.403 465.342 760.359 463.946 761.375 463.1C762.391 462.236 763.567 461.805 764.904 461.805C765.124 461.805 765.353 461.813 765.59 461.83C765.844 461.847 766.064 461.889 766.25 461.957L765.971 465.461C765.7 465.427 765.404 465.402 765.082 465.385C764.76 465.351 764.473 465.334 764.219 465.334C763.085 465.334 762.103 465.571 761.273 466.045C760.461 466.502 759.708 467.255 759.014 468.305ZM755.764 468.076V464.826L756.373 465.943L752.869 464.268L752.971 463.201C753.715 462.863 754.579 462.575 755.561 462.338C756.542 462.101 757.592 461.932 758.709 461.83L759.674 465.867L755.764 468.076ZM786.41 472.113C784.717 472.113 782.906 472.012 780.977 471.809L781.357 469.422C783.27 469.625 785.107 469.727 786.867 469.727C790.219 469.727 791.895 467.822 791.895 464.014C791.895 460.273 790.286 458.402 787.07 458.402H780.977V455.863H787.299C790.295 455.863 792.597 456.523 794.205 457.844C795.813 459.147 796.617 461.018 796.617 463.455C796.617 466.096 795.695 468.203 793.85 469.777C792.021 471.335 789.542 472.113 786.41 472.113ZM779.326 480.619V456.219H783.592V480.619H779.326ZM776.482 481L776.609 479.375C777.49 479.02 778.564 478.689 779.834 478.385L779.326 480.289V476.734H783.592V480.289L783.033 478.588L787.299 479.324L787.172 481H776.482ZM786.436 455.863L786.309 457.488C785.428 457.844 784.354 458.174 783.084 458.479L783.592 456.574V460.129H779.326V456.574L779.758 458.275L776.381 457.539L776.508 455.863H786.436ZM801.568 480.848V454.746L805.631 455.482V480.848H801.568ZM813.146 480.848V468.051C813.146 465.732 812.012 464.572 809.744 464.572C807.95 464.572 806.156 465.283 804.361 466.705L803.854 465.436C806.003 462.896 808.602 461.627 811.648 461.627C813.443 461.627 814.814 462.118 815.762 463.1C816.727 464.064 817.209 465.452 817.209 467.264V480.848H813.146ZM798.979 481L799.105 479.477C799.596 479.24 800.087 479.045 800.578 478.893C801.069 478.74 801.56 478.605 802.051 478.486L801.568 480.365V476.887H805.631V480.365L805.225 478.689L808.322 479.426L808.195 481H798.979ZM811.014 481L811.141 479.375C811.496 479.189 811.877 479.028 812.283 478.893C812.689 478.74 813.138 478.605 813.629 478.486L813.146 480.365V476.887H817.209V480.365L816.803 478.689L819.9 479.426L819.773 481H811.014ZM801.568 458.301V455.127L801.949 456.016L798.521 454.67L798.623 453.654C800.214 453.079 802.042 452.749 804.107 452.664H805.631V457.031L801.568 458.301ZM831.732 481.457C828.923 481.457 826.688 480.568 825.029 478.791C823.37 476.997 822.541 474.593 822.541 471.58C822.541 468.533 823.379 466.113 825.055 464.318C826.73 462.507 828.982 461.602 831.809 461.602C834.618 461.602 836.844 462.499 838.486 464.293C840.145 466.07 840.975 468.474 840.975 471.504C840.975 474.551 840.137 476.971 838.461 478.766C836.802 480.56 834.559 481.457 831.732 481.457ZM832.164 479.07C835.059 479.07 836.506 476.777 836.506 472.189C836.506 469.549 836.057 467.526 835.16 466.121C834.28 464.699 833.01 463.988 831.352 463.988C828.457 463.988 827.01 466.282 827.01 470.869C827.01 473.51 827.458 475.541 828.355 476.963C829.253 478.368 830.522 479.07 832.164 479.07ZM858.139 480.848V468.051C858.139 465.732 857.021 464.572 854.787 464.572C853.027 464.572 851.249 465.283 849.455 466.705L848.947 465.436C849.98 464.217 851.165 463.277 852.502 462.617C853.839 461.957 855.244 461.627 856.717 461.627C858.477 461.627 859.831 462.118 860.779 463.1C861.727 464.064 862.201 465.452 862.201 467.264V480.848H858.139ZM846.662 480.848V463.887L850.725 464.953V480.848H846.662ZM844.072 481L844.199 479.477C844.69 479.24 845.181 479.045 845.672 478.893C846.163 478.74 846.654 478.605 847.145 478.486L846.662 480.365V476.887H850.725V480.365L850.318 478.689L853.416 479.426L853.289 481H844.072ZM856.006 481L856.133 479.375C856.488 479.189 856.869 479.028 857.275 478.893C857.682 478.74 858.13 478.605 858.621 478.486L858.139 480.365V476.887H862.201V480.365L861.795 478.689L864.893 479.426L864.766 481H856.006ZM846.662 468.076V464.826L847.271 465.943L843.768 464.268L843.869 463.201C844.614 462.863 845.477 462.575 846.459 462.338C847.441 462.101 848.49 461.932 849.607 461.83L850.572 465.867L846.662 468.076ZM877.105 481.406C874.042 481.406 871.68 480.577 870.021 478.918C868.363 477.259 867.533 474.889 867.533 471.809C867.533 468.677 868.346 466.197 869.971 464.369C871.596 462.524 873.788 461.602 876.547 461.602C879.018 461.602 880.923 462.38 882.26 463.938C883.597 465.478 884.266 467.695 884.266 470.59C884.266 470.844 884.257 471.098 884.24 471.352C884.223 471.605 884.198 471.851 884.164 472.088L879.898 471.275C879.898 468.686 879.585 466.815 878.959 465.664C878.35 464.513 877.351 463.938 875.963 463.938C873.255 463.938 871.9 466.079 871.9 470.361C871.9 475.761 874.059 478.461 878.375 478.461C880.068 478.461 881.837 478.114 883.682 477.42L883.504 479.807C882.708 480.314 881.752 480.712 880.635 481C879.535 481.271 878.358 481.406 877.105 481.406ZM869.184 472.088V470.006H883.758L884.164 472.088H869.184ZM914.963 481.152L898.916 458.504L901.76 455.863L917.807 478.562L918.01 481.025C917.113 481.212 916.097 481.254 914.963 481.152ZM898.713 480.619V456.219L901.912 457.717V480.619H898.713ZM902.115 460.23L899.145 458.732L895.768 457.539L895.895 455.863H901.76L902.115 460.23ZM918.01 481.025L914.811 479.883V456.219H918.01V481.025ZM895.869 481L895.996 479.375C896.876 479.02 897.951 478.689 899.221 478.385L898.713 480.289V476.734H901.912V480.289L901.43 478.588L905.213 479.324L905.086 481H895.869ZM920.701 455.863L920.574 457.488C919.576 457.911 918.543 458.242 917.477 458.479L918.01 456.574V460.129H914.811V456.574L915.242 458.275L911.865 457.539L911.992 455.863H920.701ZM929.893 481.432C926.355 481.432 924.586 479.451 924.586 475.49V463.988L928.648 464.268V474.678C928.648 476.032 928.894 477.014 929.385 477.623C929.893 478.232 930.688 478.537 931.771 478.537C933.515 478.537 935.326 477.784 937.205 476.277L937.688 477.42C935.419 480.094 932.821 481.432 929.893 481.432ZM924.586 466.959V464.344L925.195 465.359L922.174 463.912L922.301 462.643C923.79 462.152 925.534 461.881 927.531 461.83H928.648V465.994L924.586 466.959ZM939.973 479.502L935.91 478.486V464.039L939.973 464.293V479.502ZM935.91 466.959V464.344L936.52 465.385L933.27 463.836L933.371 462.719C934.184 462.431 935.064 462.219 936.012 462.084C936.96 461.932 937.908 461.847 938.855 461.83H939.973V465.943L935.91 466.959ZM937.027 481.076L936.164 477.775L939.973 476.684V479.451L939.414 478.436L942.512 479.324L942.385 480.797C940.997 481.017 939.211 481.11 937.027 481.076ZM970.365 480.848V468.051C970.365 465.732 969.273 464.572 967.09 464.572C965.431 464.572 963.688 465.283 961.859 466.705L961.352 465.436C963.518 462.896 966.074 461.627 969.02 461.627C970.746 461.627 972.075 462.118 973.006 463.1C973.954 464.064 974.428 465.452 974.428 467.264V480.848H970.365ZM945.279 481L945.406 479.477C945.897 479.24 946.388 479.045 946.879 478.893C947.37 478.74 947.861 478.605 948.352 478.486L947.869 480.365V476.887H951.932V480.365L951.525 478.689L954.521 479.426L954.395 481H945.279ZM947.869 480.848V463.887L951.932 464.953V480.848H947.869ZM956.959 481L957.086 479.375C957.441 479.189 957.822 479.028 958.229 478.893C958.635 478.74 959.083 478.605 959.574 478.486L959.092 480.365V476.887H963.154V480.365L962.748 478.689L965.744 479.426L965.617 481H956.959ZM959.092 480.848V468.051C959.092 465.732 958.017 464.572 955.867 464.572C954.191 464.572 952.456 465.283 950.662 466.705L950.154 465.436C952.304 462.896 954.843 461.627 957.771 461.627C959.481 461.627 960.801 462.101 961.732 463.049C962.68 463.98 963.154 465.351 963.154 467.162V480.848H959.092ZM947.869 468.076V464.826L948.479 465.943L944.975 464.268L945.076 463.201C945.821 462.863 946.684 462.575 947.666 462.338C948.648 462.101 949.697 461.932 950.814 461.83L951.779 465.867L947.869 468.076ZM968.232 481L968.359 479.375C968.715 479.189 969.096 479.028 969.502 478.893C969.908 478.74 970.357 478.605 970.848 478.486L970.365 480.365V476.887H974.428V480.365L974.021 478.689L977.119 479.426L976.992 481H968.232ZM988.469 481.457C985.896 481.457 984.102 480.661 983.086 479.07L983.898 477.166C985.405 478.436 987.021 479.07 988.748 479.07C990.407 479.07 991.676 478.444 992.557 477.191C993.437 475.922 993.877 474.119 993.877 471.783C993.877 469.464 993.437 467.678 992.557 466.426C991.693 465.173 990.458 464.547 988.85 464.547C987.309 464.547 985.727 465.182 984.102 466.451L983.619 465.359C985.718 462.854 988.071 461.602 990.678 461.602C992.997 461.602 994.833 462.439 996.188 464.115C997.559 465.791 998.244 468.051 998.244 470.895C998.244 474.111 997.355 476.675 995.578 478.588C993.818 480.501 991.448 481.457 988.469 481.457ZM981.182 481L981.334 477.344V453.832L985.396 454.848V479.07L984.025 479.984C983.704 480.374 983.331 480.712 982.908 481H981.182ZM981.334 458.301V455.127L981.715 456.016L978.287 454.67L978.389 453.654C979.98 453.079 981.808 452.749 983.873 452.664H985.396V457.031L981.334 458.301ZM1010.81 481.406C1007.75 481.406 1005.39 480.577 1003.73 478.918C1002.07 477.259 1001.24 474.889 1001.24 471.809C1001.24 468.677 1002.05 466.197 1003.68 464.369C1005.3 462.524 1007.49 461.602 1010.25 461.602C1012.73 461.602 1014.63 462.38 1015.97 463.938C1017.3 465.478 1017.97 467.695 1017.97 470.59C1017.97 470.844 1017.96 471.098 1017.95 471.352C1017.93 471.605 1017.9 471.851 1017.87 472.088L1013.61 471.275C1013.61 468.686 1013.29 466.815 1012.67 465.664C1012.06 464.513 1011.06 463.938 1009.67 463.938C1006.96 463.938 1005.61 466.079 1005.61 470.361C1005.61 475.761 1007.77 478.461 1012.08 478.461C1013.77 478.461 1015.54 478.114 1017.39 477.42L1017.21 479.807C1016.42 480.314 1015.46 480.712 1014.34 481C1013.24 481.271 1012.07 481.406 1010.81 481.406ZM1002.89 472.088V470.006H1017.46L1017.87 472.088H1002.89ZM1023.58 480.848V464.598L1027.65 465.893V480.848H1023.58ZM1020.99 481L1021.12 479.477C1021.61 479.24 1022.1 479.045 1022.59 478.893C1023.08 478.74 1023.58 478.605 1024.07 478.486L1023.58 480.34V476.887H1027.65V480.34L1027.24 478.715L1031.35 479.426L1031.23 481H1020.99ZM1026.83 468.305L1026.33 467.289C1027.22 465.342 1028.18 463.946 1029.2 463.1C1030.21 462.236 1031.39 461.805 1032.72 461.805C1032.94 461.805 1033.17 461.813 1033.41 461.83C1033.66 461.847 1033.88 461.889 1034.07 461.957L1033.79 465.461C1033.52 465.427 1033.22 465.402 1032.9 465.385C1032.58 465.351 1032.29 465.334 1032.04 465.334C1030.9 465.334 1029.92 465.571 1029.09 466.045C1028.28 466.502 1027.53 467.255 1026.83 468.305ZM1023.58 468.076V464.826L1024.19 465.943L1020.69 464.268L1020.79 463.201C1021.54 462.863 1022.4 462.575 1023.38 462.338C1024.36 462.101 1025.41 461.932 1026.53 461.83L1027.49 465.867L1023.58 468.076ZM1037.85 481.355C1037.01 481.355 1036.33 481.11 1035.82 480.619C1035.31 480.111 1035.06 479.443 1035.06 478.613C1035.06 477.767 1035.31 477.098 1035.82 476.607C1036.33 476.117 1037.01 475.871 1037.85 475.871C1038.7 475.871 1039.38 476.117 1039.88 476.607C1040.39 477.098 1040.65 477.767 1040.65 478.613C1040.65 479.443 1040.39 480.111 1039.88 480.619C1039.38 481.11 1038.7 481.355 1037.85 481.355Z" fill="#525252"/>
</svg>
