<svg width="25" height="25" viewBox="0 0 25 25" fill="none" xmlns="http://www.w3.org/2000/svg">
<path d="M19.4968 7.36548C19.4968 6.27307 18.603 5.37927 17.5106 5.37927H14.5313V7.36548H17.5106V9.9972L14.0546 14.3172H10.5588V9.35169H6.58643C4.39167 9.35169 2.61401 11.1293 2.61401 13.3241V16.3034H4.60022C4.60022 17.952 5.93098 19.2827 7.57953 19.2827C9.22808 19.2827 10.5588 17.952 10.5588 16.3034H15.0079L19.4968 10.6924V7.36548ZM7.57953 17.2965C7.03332 17.2965 6.58643 16.8496 6.58643 16.3034H8.57263C8.57263 16.8496 8.12574 17.2965 7.57953 17.2965Z" fill="black"/>
<path d="M5.59326 6.37244H10.5588V8.35864H5.59326V6.37244ZM19.4967 13.3242C17.8482 13.3242 16.5174 14.6549 16.5174 16.3035C16.5174 17.952 17.8482 19.2828 19.4967 19.2828C21.1453 19.2828 22.476 17.952 22.476 16.3035C22.476 14.6549 21.1453 13.3242 19.4967 13.3242ZM19.4967 17.2966C18.9505 17.2966 18.5036 16.8497 18.5036 16.3035C18.5036 15.7573 18.9505 15.3104 19.4967 15.3104C20.0429 15.3104 20.4898 15.7573 20.4898 16.3035C20.4898 16.8497 20.0429 17.2966 19.4967 17.2966Z" fill="black"/>
</svg>
