<svg width="27" height="27" viewBox="0 0 27 27" fill="none" xmlns="http://www.w3.org/2000/svg">
<path fill-rule="evenodd" clip-rule="evenodd" d="M9.74992 10.5941C9.36832 10.5941 8.99045 10.6693 8.63789 10.8153C8.28534 10.9614 7.96499 11.1754 7.69516 11.4452C7.42532 11.7151 7.21128 12.0354 7.06524 12.388C6.91921 12.7405 6.84405 13.1184 6.84405 13.5C6.84405 13.8816 6.91921 14.2595 7.06524 14.612C7.21128 14.9646 7.42532 15.2849 7.69516 15.5548C7.96499 15.8246 8.28534 16.0386 8.63789 16.1847C8.99045 16.3307 9.36832 16.4059 9.74992 16.4059H12.6558V10.5941H9.74992ZM12.6558 8.90662H9.74992C8.97909 8.90662 8.23982 8.60041 7.69476 8.05535C7.1497 7.51029 6.84349 6.77102 6.84349 6.00019C6.84349 5.22935 7.1497 4.49009 7.69476 3.94503C8.23982 3.39996 8.97909 3.09375 9.74992 3.09375H12.6558V8.90662ZM14.3433 3.09375V8.90662H17.2492C18.0101 8.89165 18.7348 8.57886 19.2677 8.03543C19.8005 7.492 20.099 6.76127 20.099 6.00019C20.099 5.23911 19.8005 4.50838 19.2677 3.96495C18.7348 3.42151 18.0101 3.10872 17.2492 3.09375H14.3433ZM17.2492 10.593C16.4864 10.5929 15.7542 10.8927 15.2105 11.4277C14.6669 11.9628 14.3554 12.6901 14.3433 13.4528V13.5461C14.3526 14.1187 14.5309 14.6759 14.8558 15.1475C15.1807 15.6191 15.6378 15.9842 16.1695 16.1969C16.7012 16.4096 17.284 16.4604 17.8445 16.343C18.405 16.2256 18.9184 15.9452 19.3201 15.537C19.7217 15.1288 19.9938 14.611 20.1022 14.0486C20.2105 13.4863 20.1503 12.9044 19.929 12.3762C19.7078 11.848 19.3354 11.3969 18.8586 11.0796C18.3818 10.7624 17.8219 10.5931 17.2492 10.593ZM9.74992 18.0934C9.17492 18.0932 8.61278 18.2635 8.13457 18.5827C7.65637 18.902 7.2836 19.356 7.0634 19.8871C6.84321 20.4183 6.78548 21.0028 6.89752 21.5668C7.00956 22.1308 7.28633 22.6489 7.69284 23.0555C8.09935 23.4622 8.61732 23.7392 9.18126 23.8514C9.74519 23.9637 10.3297 23.9062 10.861 23.6862C11.3922 23.4662 11.8463 23.0936 12.1658 22.6155C12.4853 22.1375 12.6558 21.5754 12.6558 21.0004V18.0934H9.74992Z" fill="#495E57"/>
</svg>
