<svg width="23" height="22" viewBox="0 0 23 22" fill="none" xmlns="http://www.w3.org/2000/svg">
<path d="M6.67 0H16.33C20.01 0 23 2.86 23 6.38V15.62C23 17.3121 22.2973 18.9349 21.0464 20.1313C19.7955 21.3278 18.099 22 16.33 22H6.67C2.99 22 0 19.14 0 15.62V6.38C0 4.68792 0.70273 3.06514 1.9536 1.86866C3.20447 0.672177 4.90101 0 6.67 0ZM6.44 2.2C5.342 2.2 4.28898 2.61721 3.51258 3.35986C2.73618 4.1025 2.3 5.10974 2.3 6.16V15.84C2.3 18.029 4.1515 19.8 6.44 19.8H16.56C17.658 19.8 18.711 19.3828 19.4874 18.6401C20.2638 17.8975 20.7 16.8903 20.7 15.84V6.16C20.7 3.971 18.8485 2.2 16.56 2.2H6.44ZM17.5375 3.85C17.9187 3.85 18.2844 3.99487 18.554 4.25273C18.8236 4.51059 18.975 4.86033 18.975 5.225C18.975 5.58967 18.8236 5.93941 18.554 6.19727C18.2844 6.45513 17.9187 6.6 17.5375 6.6C17.1563 6.6 16.7906 6.45513 16.521 6.19727C16.2515 5.93941 16.1 5.58967 16.1 5.225C16.1 4.86033 16.2515 4.51059 16.521 4.25273C16.7906 3.99487 17.1563 3.85 17.5375 3.85ZM11.5 5.5C13.025 5.5 14.4875 6.07946 15.5659 7.11091C16.6442 8.14236 17.25 9.54131 17.25 11C17.25 12.4587 16.6442 13.8576 15.5659 14.8891C14.4875 15.9205 13.025 16.5 11.5 16.5C9.97501 16.5 8.51247 15.9205 7.43414 14.8891C6.3558 13.8576 5.75 12.4587 5.75 11C5.75 9.54131 6.3558 8.14236 7.43414 7.11091C8.51247 6.07946 9.97501 5.5 11.5 5.5ZM11.5 7.7C10.585 7.7 9.70748 8.04768 9.06048 8.66655C8.41348 9.28542 8.05 10.1248 8.05 11C8.05 11.8752 8.41348 12.7146 9.06048 13.3335C9.70748 13.9523 10.585 14.3 11.5 14.3C12.415 14.3 13.2925 13.9523 13.9395 13.3335C14.5865 12.7146 14.95 11.8752 14.95 11C14.95 10.1248 14.5865 9.28542 13.9395 8.66655C13.2925 8.04768 12.415 7.7 11.5 7.7Z" fill="#495E57"/>
</svg>
