<svg width="21" height="21" viewBox="0 0 21 21" fill="none" xmlns="http://www.w3.org/2000/svg">
<path d="M18.6667 0C19.2855 0 19.879 0.245833 20.3166 0.683417C20.7542 1.121 21 1.71449 21 2.33333V18.6667C21 19.2855 20.7542 19.879 20.3166 20.3166C19.879 20.7542 19.2855 21 18.6667 21H2.33333C1.71449 21 1.121 20.7542 0.683417 20.3166C0.245833 19.879 0 19.2855 0 18.6667V2.33333C0 1.71449 0.245833 1.121 0.683417 0.683417C1.121 0.245833 1.71449 0 2.33333 0H18.6667ZM18.0833 18.0833V11.9C18.0833 10.8913 17.6826 9.9239 16.9694 9.21064C16.2561 8.49737 15.2887 8.09667 14.28 8.09667C13.2883 8.09667 12.1333 8.70333 11.5733 9.61333V8.31833H8.31833V18.0833H11.5733V12.3317C11.5733 11.4333 12.2967 10.6983 13.195 10.6983C13.6282 10.6983 14.0436 10.8704 14.3499 11.1767C14.6563 11.483 14.8283 11.8985 14.8283 12.3317V18.0833H18.0833ZM4.52667 6.48667C5.04649 6.48667 5.54502 6.28017 5.9126 5.9126C6.28017 5.54502 6.48667 5.04649 6.48667 4.52667C6.48667 3.44167 5.61167 2.555 4.52667 2.555C4.00375 2.555 3.50225 2.76273 3.13249 3.13249C2.76273 3.50225 2.555 4.00375 2.555 4.52667C2.555 5.61167 3.44167 6.48667 4.52667 6.48667ZM6.14833 18.0833V8.31833H2.91667V18.0833H6.14833Z" fill="#495E57"/>
</svg>
