<svg width="22" height="22" viewBox="0 0 22 22" fill="none" xmlns="http://www.w3.org/2000/svg">
<g clip-path="url(#clip0_415_3124)">
<rect width="22" height="22" fill="white"/>
<path d="M3.14286 0C1.40938 0 0 1.40938 0 3.14286V18.8571C0 20.5906 1.40938 22 3.14286 22H18.8571C20.5906 22 22 20.5906 22 18.8571V3.14286C22 1.40938 20.5906 0 18.8571 0H3.14286ZM17.7326 4.125L12.6353 9.94911L18.6312 17.875H13.9366L10.2634 13.0674L6.05491 17.875H3.72232L9.17321 11.6433L3.42277 4.125H8.23527L11.5598 8.52009L15.4 4.125H17.7326ZM15.8763 16.4804L7.53304 5.44598H6.1433L14.5799 16.4804H15.8714H15.8763Z" fill="#495E57"/>
</g>
<defs>
<clipPath id="clip0_415_3124">
<rect width="22" height="22" fill="white"/>
</clipPath>
</defs>
</svg>
